<svg id="Layer_1" data-name="Layer 1" xmlns="http://www.w3.org/2000/svg" viewBox="0 0 128 128"><defs><style>.cls-1{fill:#fff303;}</style></defs><title>Artboard 1 copy 4</title><path class="cls-1" d="M116,71V56H100.3a34.78,34.78,0,0,0-4.44-11.25l11-11L96.2,23.19,85.47,33.92a34.8,34.8,0,0,0-11.47-5V14H59V28.7a34.55,34.55,0,0,0-11.86,4.83L36.8,23.19,26.19,33.8,36.53,44.14A34.55,34.55,0,0,0,31.7,56H16V71H31.92a34.8,34.8,0,0,0,5,11.47L25.49,93.91l10.6,10.6L47.74,92.86A35.06,35.06,0,0,0,59,97.3V114H74V97.08a35,35,0,0,0,10.87-4.61l12,12,10.6-10.6-12-12A35,35,0,0,0,100.08,71ZM68.07,83.15A20.25,20.25,0,1,1,86.15,65.07,20.26,20.26,0,0,1,68.07,83.15Z"/></svg>