<svg id="Layer_1" data-name="Layer 1" xmlns="http://www.w3.org/2000/svg" viewBox="0 0 128 128"><defs><style>.cls-1{fill:#fff303;}</style></defs><title>splice-icon</title><polygon class="cls-1" points="36.5 71.5 9.75 71.5 9.75 56.5 36.5 56.5 44 64 36.5 71.5"/><polygon class="cls-1" points="91.5 56.5 118.25 56.5 118.25 71.5 91.5 71.5 84 64 91.5 56.5"/><polygon class="cls-1" points="73.38 44.59 79.25 22.58 92.25 30.08 76.12 46.17 73.38 44.59"/><polygon class="cls-1" points="51.88 46.17 35.76 30.08 48.74 22.58 54.62 44.59 51.88 46.17"/><polygon class="cls-1" points="54.62 83.41 48.74 105.42 35.76 97.92 51.88 81.83 54.62 83.41"/><polygon class="cls-1" points="76.12 81.83 92.25 97.92 79.25 105.42 73.38 83.41 76.12 81.83"/></svg>